<svg xmlns="http://www.w3.org/2000/svg" xmlns:xlink="http://www.w3.org/1999/xlink" style="display: none;"><symbol fill="none" viewBox="0 0 32 32" id="github-32" xmlns="http://www.w3.org/2000/svg"><path fill="var(--background)" d="M24.437 28.404C28.399 25.704 31 21.156 31 16c0-8.284-6.716-15-15-15S1 7.716 1 16c0 5.148 2.594 9.69 6.546 12.392C6.6 27.18 6 25.416 6 22.847c0-1.806.623-3.283 1.61-4.432-.156-.41-.701-2.107.156-4.378 0 0 1.325-.438 4.312 1.696 1.279-.361 2.597-.732 3.922-.733 1.325 0 2.675.378 3.922.733 2.987-2.134 4.312-1.696 4.312-1.696.857 2.27.311 3.967.155 4.378C25.404 19.564 26 21.04 26 22.847c0 2.584-.607 4.347-1.563 5.557"/><path fill="var(--secondary-stroke)" d="M5.126 24.818A15 15 0 015 22.847c0-1.833.569-3.389 1.5-4.643-.43-1.69-.105-3.367.5-4.967 1.87-.618 3.712.361 5.26 1.406C13.407 14.323 14.69 14 16 14c1.273 0 2.522.3 3.74.642 2.137-1.44 3.541-1.673 4.286-1.639.346.016.65.127.976.234.603 1.598.928 3.272.501 4.96.954 1.265 1.498 2.826 1.498 4.65q0 1.058-.126 1.971a14 14 0 01-3.132 2.848c.741-1 1.258-2.5 1.258-4.82 0-1.68-.681-3-1.76-4.222.448-1.178.598-2.325.267-3.582-1.267.244-2.366 1.05-3.396 1.785-1.34-.382-2.704-.827-4.11-.827-1.408.002-2.772.447-4.114.826-1.029-.735-2.128-1.54-3.394-1.784-.33 1.253-.183 2.399.263 3.574C7.699 19.846 7 21.174 7 22.846c0 2.306.51 3.807 1.244 4.81a14 14 0 01-3.118-2.838"/><path fill="var(--primary-stroke)" fill-rule="evenodd" d="M32 16c0 8.837-7.163 16-16 16S0 24.837 0 16 7.163 0 16 0s16 7.163 16 16m-2 0c0 7.732-6.268 14-14 14S2 23.732 2 16 8.268 2 16 2s14 6.268 14 14" clip-rule="evenodd"/></symbol><symbol fill="none" viewBox="0 0 32 32" id="medium-32" xmlns="http://www.w3.org/2000/svg"><path fill="var(--background)" d="M16 31q.57 0 1.13-.042C15.863 29.448 15 26.451 15 23c0-4.97 1.79-9 4-9s4 4.03 4 9c0 2.794-.566 5.29-1.454 6.941a15 15 0 004.654-2.943A38 38 0 0126 23c0-4.418.672-8 1.5-8s1.5 3.582 1.5 8q0 .249-.003.493A14.93 14.93 0 0031 16c0-8.284-6.716-15-15-15C8.325 1 1.996 6.764 1.107 14.2a9 9 0 018.195 15.226A14.94 14.94 0 0016 31"/><path d="M2.317 13.023Q2.657 13 3 13c5.523 0 10 4.477 10 10 0 2.28-.763 4.38-2.047 6.063a14 14 0 01-1.858-.881 8 8 0 00-7.064-13.124q.07-1.04.286-2.035m13.04 16.963l-.1-.216C14.466 27.986 14 25.592 14 23s.465-4.986 1.258-6.77c.396-.89.893-1.674 1.496-2.247C17.36 13.404 18.122 13 19 13s1.639.404 2.246.983c.603.573 1.1 1.356 1.496 2.247C23.535 18.014 24 20.408 24 23c0 1.765-.215 3.438-.603 4.889-.805.502-1.665.924-2.568 1.256q.043-.09.086-.187C21.57 27.484 22 25.378 22 23s-.43-4.484-1.085-5.958c-.328-.738-.693-1.273-1.047-1.61-.35-.333-.641-.432-.868-.432s-.518.1-.868.432c-.354.337-.719.872-1.047 1.61C16.43 18.516 16 20.622 16 23s.43 4.484 1.085 5.958q.247.55.512.952a14 14 0 01-2.24.075m9.798-3.393A40 40 0 0125 23c0-2.251.17-4.316.456-5.841.142-.754.32-1.427.546-1.936a2.7 2.7 0 01.458-.736c.2-.217.548-.487 1.04-.487s.84.27 1.04.487c.2.22.347.486.458.736.225.509.404 1.182.546 1.936.081.437.154.92.216 1.437a13.9 13.9 0 01-1.76 4.62V23c0-2.167-.165-4.102-.422-5.473a13 13 0 00-.078-.384q-.039.18-.078.384C27.165 18.897 27 20.833 27 23q0 .838.032 1.621a14.113 14.113 0 01-1.877 1.971" fill="var(--secondary-stroke)"/><path fill="var(--primary-stroke)" fill-rule="evenodd" d="M32 16c0 8.837-7.163 16-16 16S0 24.837 0 16 7.163 0 16 0s16 7.163 16 16m-2 0c0 7.732-6.268 14-14 14S2 23.732 2 16 8.268 2 16 2s14 6.268 14 14" clip-rule="evenodd"/></symbol><symbol fill="none" viewBox="0 0 32 32" id="world-32" xmlns="http://www.w3.org/2000/svg"><path fill="var(--background)" fill-rule="evenodd" d="M6.144 27.307l5.2-2.8A7.96 7.96 0 0016 26a7.96 7.96 0 004.655-1.493l5.201 2.8A14.97 14.97 0 0031 16c0-8.284-6.716-15-15-15S1 7.716 1 16c0 4.511 1.992 8.558 5.144 11.307M15 9a4 4 0 00-4 4v4a5 5 0 0010 0v-4a4 4 0 00-4-4z" clip-rule="evenodd"/><g fill="var(--secondary-stroke)"><path d="M6.295 26.09q.78.75 1.667 1.374l3.33-1.793A8.96 8.96 0 0016 27a8.96 8.96 0 004.709-1.329l3.33 1.793q.886-.624 1.666-1.374l-5.125-2.76-.507.364A6.96 6.96 0 0116 25a6.96 6.96 0 01-4.073-1.306l-.507-.364z"/><path fill-rule="evenodd" d="M10 13a5 5 0 015-5h2a5 5 0 015 5v4a6 6 0 01-12 0zm5-3a3 3 0 00-3 3v4a4 4 0 108 0v-4a3 3 0 00-3-3z" clip-rule="evenodd"/></g><path fill="var(--primary-stroke)" fill-rule="evenodd" d="M32 16c0 8.837-7.163 16-16 16S0 24.837 0 16 7.163 0 16 0s16 7.163 16 16m-2 0c0 7.732-6.268 14-14 14S2 23.732 2 16 8.268 2 16 2s14 6.268 14 14" clip-rule="evenodd"/></symbol><symbol fill="none" viewBox="0 0 80 80" id="world-80" xmlns="http://www.w3.org/2000/svg"><path fill="var(--background)" fill-rule="evenodd" d="M13.803 68.891l14.559-7.624A19.9 19.9 0 0040 65c4.341 0 8.36-1.383 11.638-3.733l14.56 7.624C74.062 61.756 79 51.455 79 40 79 18.46 61.54 1 40 1S1 18.46 1 40c0 11.455 4.938 21.756 12.803 28.891M37.5 22.5c-5.523 0-10 4.477-10 10v10C27.5 49.404 33.096 55 40 55s12.5-5.596 12.5-12.5v-10c0-5.523-4.477-10-10-10z" clip-rule="evenodd"/><g fill="var(--secondary-stroke)"><path fill-rule="evenodd" d="M37.5 21C31.149 21 26 26.149 26 32.5v10c0 7.732 6.268 14 14 14s14-6.268 14-14v-10C54 26.149 48.851 21 42.5 21zM29 32.5a8.5 8.5 0 018.5-8.5h5a8.5 8.5 0 018.5 8.5v10c0 6.075-4.925 11-11 11s-11-4.925-11-11z" clip-rule="evenodd"/><path d="M14.499 66.809q1.168 1.11 2.427 2.117l11.332-5.913A21.4 21.4 0 0040 66.5c4.33 0 8.366-1.282 11.742-3.487l11.332 5.913q1.26-1.006 2.427-2.117L51.514 59.51l-.75.538A18.4 18.4 0 0140 63.5a18.4 18.4 0 01-10.765-3.452l-.75-.538z"/></g><path fill="var(--primary-stroke)" fill-rule="evenodd" d="M80 40c0 22.091-17.909 40-40 40S0 62.091 0 40 17.909 0 40 0s40 17.909 40 40m-3 0c0 20.435-16.565 37-37 37S3 60.435 3 40 19.566 3 40 3s37 16.566 37 37" clip-rule="evenodd"/></symbol><symbol fill="none" viewBox="0 0 40 40" id="discipline-40" xmlns="http://www.w3.org/2000/svg"><path fill="var(--background)" d="M39 20c0 10.493-8.507 19-19 19-6.394 0-12.05-3.158-15.494-8H25.5a1.5 1.5 0 001.5-1.5v-6a1.5 1.5 0 00-1.5-1.5H1.104A19 19 0 011 20C1 9.507 9.507 1 20 1c6.824 0 12.808 3.598 16.159 9H19l-7 3 7 3h19.578c.276 1.29.422 2.628.422 4"/><g fill="var(--secondary-stroke)"><path fill-rule="evenodd" d="M37.751 17H19a1 1 0 01-.394-.08l-7-3a1 1 0 010-1.84l7-3A1 1 0 0119 9h15.249q.736.95 1.34 1.996A1 1 0 0135.5 11H22v4h15.296q.284.979.455 2M20 11h-.795l-4.666 2 4.666 2H20z" clip-rule="evenodd"/><path d="M5.09 30.088Q5.774 31.095 6.583 32H25.5a2.5 2.5 0 002.5-2.5v-6a2.5 2.5 0 00-2.5-2.5H2.027a17.9 17.9 0 001.695 6.692A1 1 0 004 27v-4h2v2a1 1 0 102 0v-2h2v4a1 1 0 002 0v-4h2v2a1 1 0 102 0v-2h2v4a1 1 0 102 0v-4h2v2a1 1 0 102 0v-2h1.5a.5.5 0 01.5.5v6a.5.5 0 01-.5.5h-20a1 1 0 00-.41.088"/></g><path fill="var(--primary-stroke)" fill-rule="evenodd" d="M40 20c0 11.046-8.954 20-20 20S0 31.046 0 20 8.954 0 20 0s20 8.954 20 20m-2 0c0 9.941-8.059 18-18 18S2 29.941 2 20 10.059 2 20 2s18 8.059 18 18" clip-rule="evenodd"/></symbol><symbol fill="none" viewBox="0 0 32 32" id="email-32" xmlns="http://www.w3.org/2000/svg"><path fill="var(--background)" d="M26 27.18A14.96 14.96 0 0031 16c0-8.284-6.716-15-15-15S1 7.716 1 16a14.96 14.96 0 005 11.18V16.5A1.5 1.5 0 017.5 15h17a1.5 1.5 0 011.5 1.5z"/><path fill="var(--secondary-stroke)" fill-rule="evenodd" d="M8.555 27.859l4.11-4.11 2.735 2.05a1 1 0 001.2 0l2.735-2.05 4.11 4.11A14.1 14.1 0 0027 24.66V16.5a2.5 2.5 0 00-2.5-2.5h-17A2.5 2.5 0 005 16.5v8.16a14.1 14.1 0 003.555 3.198M7 16.5a.5.5 0 01.5-.5h17a.5.5 0 01.5.5v.5l-9 6.75L7 17zm4.05 6.037L7 26.586V19.5zM25 26.586l-4.049-4.05L25 19.5z" clip-rule="evenodd"/><path fill="var(--primary-stroke)" fill-rule="evenodd" d="M32 16c0 8.837-7.163 16-16 16S0 24.837 0 16 7.163 0 16 0s16 7.163 16 16m-2 0c0 7.732-6.268 14-14 14S2 23.732 2 16 8.268 2 16 2s14 6.268 14 14" clip-rule="evenodd"/></symbol><symbol fill="none" viewBox="0 0 40 40" id="email-40" xmlns="http://www.w3.org/2000/svg"><path fill="var(--background)" d="M33 33.857A18.95 18.95 0 0039 20C39 9.507 30.493 1 20 1S1 9.507 1 20c0 5.465 2.307 10.39 6 13.856V21a2 2 0 012-2h22a2 2 0 012 2z"/><path fill="var(--secondary-stroke)" fill-rule="evenodd" d="M10.269 35.145l5.712-5.711 3.45 2.388a1 1 0 001.138 0l3.45-2.388 5.712 5.711a18 18 0 001.639-1.19l-5.68-5.678L32 23.908v9.508a18 18 0 002-2.102V21a3 3 0 00-3-3H9a3 3 0 00-3 3v10.315a18 18 0 002 2.102v-9.508l6.31 4.368-5.68 5.678q.785.64 1.639 1.19M8 21a1 1 0 011-1h22a1 1 0 011 1v.476l-12 8.308-12-8.308z" clip-rule="evenodd"/><path fill="var(--primary-stroke)" fill-rule="evenodd" d="M40 20c0 11.046-8.954 20-20 20S0 31.046 0 20 8.954 0 20 0s20 8.954 20 20m-2 0c0 9.941-8.059 18-18 18S2 29.941 2 20 10.059 2 20 2s18 8.059 18 18" clip-rule="evenodd"/></symbol><symbol fill="none" viewBox="0 0 32 32" id="instagram-32" xmlns="http://www.w3.org/2000/svg"><path fill="var(--background)" d="M22 13H10a3 3 0 00-3 3v12.001A14.98 14.98 0 011 16C1 7.716 7.716 1 16 1s15 6.716 15 15c0 4.907-2.357 9.265-6 12.001V16a3 3 0 00-3-3"/><g fill="var(--secondary-stroke)"><path d="M8 27.49a14 14 0 01-2-1.692V16a4 4 0 014-4h12a4 4 0 014 4v9.798a14 14 0 01-2 1.693V16a2 2 0 00-2-2H10a2 2 0 00-2 2z"/><path fill-rule="evenodd" d="M16 17a5 5 0 100 10 5 5 0 000-10m-3 5a3 3 0 116 0 3 3 0 01-6 0" clip-rule="evenodd"/><path d="M21.5 18a1.5 1.5 0 100-3 1.5 1.5 0 000 3"/></g><path fill="var(--primary-stroke)" fill-rule="evenodd" d="M32 16c0 8.837-7.163 16-16 16S0 24.837 0 16 7.163 0 16 0s16 7.163 16 16m-2 0c0 7.732-6.268 14-14 14S2 23.732 2 16 8.268 2 16 2s14 6.268 14 14" clip-rule="evenodd"/></symbol><symbol fill="none" viewBox="0 0 40 40" id="instagram-40" xmlns="http://www.w3.org/2000/svg"><path fill="var(--background)" d="M25 17H15a6 6 0 00-6 6v12.494C4.158 32.05 1 26.394 1 20 1 9.507 9.507 1 20 1s19 8.507 19 19c0 6.394-3.158 12.05-8 15.494V23a6 6 0 00-6-6"/><g fill="var(--secondary-stroke)"><path d="M10 34.969V23a5 5 0 015-5h10a5 5 0 015 5v11.969c.703-.47 1.372-.99 2-1.552V23a7 7 0 00-7-7H15a7 7 0 00-7 7v10.417a18 18 0 002 1.552"/><path fill-rule="evenodd" d="M14 28a6 6 0 1112 0 6 6 0 01-12 0m6-4a4 4 0 100 8 4 4 0 000-8" clip-rule="evenodd"/><path d="M28 21.5a1.5 1.5 0 11-3 0 1.5 1.5 0 013 0"/></g><path fill="var(--primary-stroke)" fill-rule="evenodd" d="M40 20c0 11.046-8.954 20-20 20S0 31.046 0 20 8.954 0 20 0s20 8.954 20 20m-2 0c0 9.941-8.059 18-18 18S2 29.941 2 20 10.059 2 20 2s18 8.059 18 18" clip-rule="evenodd"/></symbol><symbol fill="none" viewBox="0 0 32 32" id="location-32" xmlns="http://www.w3.org/2000/svg"><g fill="var(--background)"><path d="M31 16a14.97 14.97 0 01-5.295 11.438l-1.583-4.114a.5.5 0 00-.468-.324h-3.81C21.017 21.326 22 19.246 22 17a6 6 0 00-12 0c0 2.246.984 4.326 2.155 6H8.347a.5.5 0 00-.469.324l-1.583 4.114A14.97 14.97 0 011 16C1 7.716 7.716 1 16 1s15 6.716 15 15"/><path d="M16 19a2 2 0 100-4 2 2 0 000 4"/></g><g fill="var(--secondary-stroke)" fill-rule="evenodd" clip-rule="evenodd"><path d="M13 17a3 3 0 116 0 3 3 0 01-6 0m3-1a1 1 0 100 2 1 1 0 000-2"/><path d="M7.516 27.138a14 14 0 01-1.6-1.427l1.026-2.738A1.5 1.5 0 018.346 22h2.018C9.576 20.528 9 18.828 9 17a7 7 0 0114 0c0 1.828-.576 3.528-1.365 5h2.018a1.5 1.5 0 011.405.973l1.026 2.738q-.744.774-1.6 1.427L23.307 24h-2.951c-.989 1.327-2.148 2.561-3.453 3.583l-.031.025c-.161.126-.33.258-.522.33h-.003a1 1 0 01-.694 0h-.003c-.193-.072-.361-.204-.522-.33l-.031-.025c-1.305-1.022-2.463-2.254-3.453-3.583H8.693zM11 17a5 5 0 1110 0c0 2.407-1.303 4.683-2.735 6.428A19 19 0 0116 25.738q-.143-.12-.313-.272a19 19 0 01-1.951-2.038C12.303 21.683 11 19.407 11 17"/></g><path fill="var(--primary-stroke)" fill-rule="evenodd" d="M32 16c0 8.837-7.163 16-16 16S0 24.837 0 16 7.163 0 16 0s16 7.163 16 16m-2 0c0 7.732-6.268 14-14 14S2 23.732 2 16 8.268 2 16 2s14 6.268 14 14" clip-rule="evenodd"/></symbol><symbol fill="none" viewBox="0 0 40 40" id="location-40" xmlns="http://www.w3.org/2000/svg"><g fill="var(--background)"><path d="M39 20c0 5.912-2.7 11.194-6.935 14.679l-1.826-5.02A1 1 0 0029.3 29h-5.256C25.594 26.62 27 23.708 27 21a7 7 0 10-14 0c0 2.708 1.406 5.62 2.957 8H10.7a1 1 0 00-.94.658l-1.825 5.02C3.7 31.194 1 25.913 1 20 1 9.507 9.507 1 20 1s19 8.507 19 19"/><path d="M20 24a3 3 0 100-6 3 3 0 000 6"/></g><g fill="var(--secondary-stroke)" fill-rule="evenodd" clip-rule="evenodd"><path d="M20 17a4 4 0 100 8 4 4 0 000-8m-2 4a2 2 0 114 0 2 2 0 01-4 0"/><path d="M9.122 34.342L10.7 30h4.72c1.052 1.552 2.224 3.044 3.534 4.386l.016.017c.291.298.583.597 1.029.597s.757-.319 1.045-.614c1.31-1.343 2.483-2.834 3.534-4.386h4.72l1.58 4.342q.853-.648 1.622-1.39l-1.322-3.635A2 2 0 0029.3 28h-3.48c1.203-2.138 2.18-4.606 2.18-7a8 8 0 10-16 0c0 2.394.977 4.862 2.18 7H10.7a2 2 0 00-1.88 1.317L7.5 32.95q.768.743 1.622 1.391m8.162-5.163C15.634 26.806 14 23.971 14 21a6 6 0 0112 0c0 2.97-1.634 5.806-3.284 8.18A33.5 33.5 0 0120 32.58q-.176-.19-.386-.429a34 34 0 01-2.33-2.972"/></g><path fill="var(--primary-stroke)" fill-rule="evenodd" d="M40 20c0 11.046-8.954 20-20 20S0 31.046 0 20 8.954 0 20 0s20 8.954 20 20m-2 0c0 9.941-8.059 18-18 18S2 29.941 2 20 10.059 2 20 2s18 8.059 18 18" clip-rule="evenodd"/></symbol><symbol fill="none" viewBox="0 0 32 32" id="home-32" xmlns="http://www.w3.org/2000/svg"><path fill="var(--secondary-stroke)" d="M15.995 28C9.377 28 3.999 22.62 3.999 16c0-4.59 2.679-8.84 6.818-10.83a.99.99 0 011.33.47c.24.5.03 1.09-.47 1.33-3.45 1.65-5.689 5.2-5.689 9.02 0 5.51 4.489 10 9.997 10a9.94 9.94 0 007.228-3.09.995.995 0 011.41-.03c.4.38.41 1.01.03 1.41a11.9 11.9 0 01-8.668 3.7zm9.967-6.35a.994.994 0 01-.9-1.42c.62-1.33.93-2.75.93-4.22 0-5.51-4.489-10-9.997-10-.4 0-.8.02-1.19.07a1.001 1.001 0 11-.23-1.99c.47-.06.95-.08 1.43-.08 6.618 0 11.996 5.38 11.996 12 0 1.77-.38 3.48-1.12 5.07-.17.36-.53.58-.91.58zM15.995 20a4 4 0 01-3.999-4c0-2.21 1.79-4 3.999-4 .62 0 1.24.15 1.8.43a.998.998 0 01-.9 1.78q-.42-.21-.9-.21c-1.1 0-2 .9-2 2s.9 2 2 2c1.02 0 1.88-.76 1.99-1.78.06-.55.57-.94 1.1-.88.549.06.939.56.879 1.1A3.99 3.99 0 0115.985 20z"/><path fill="var(--primary-stroke)" d="M15.995 32c-4.239 0-8.227-1.64-11.236-4.62a1 1 0 010-1.42.986.986 0 011.41 0A13.93 13.93 0 0016.005 30c7.718 0 13.996-6.28 13.996-14 0-.55.45-1 1-1s.999.45.999 1c0 8.82-7.178 16-15.995 16zM3.229 24.87a1 1 0 01-.85-.47A16.01 16.01 0 01.57 11.77c.15-.53.7-.85 1.23-.7s.85.7.7 1.23a14 14 0 001.58 11.05 1.006 1.006 0 01-.85 1.53zM15.995 24c-4.409 0-7.997-3.59-7.997-8v-.13c0-.55.45-.99 1-.99h.01c.549 0 .989.46.989 1.01v.1c0 3.31 2.689 6 5.998 6a6.004 6.004 0 005.998-6 5.98 5.98 0 00-2.789-5.07c-.47-.3-.6-.91-.31-1.38.3-.47.91-.6 1.38-.31a7.956 7.956 0 013.709 6.76c0 4.41-3.59 8-7.998 8zM9.957 13.45a.96.96 0 01-.51-.14.996.996 0 01-.35-1.37c1.5-2.55 4.379-4.08 7.298-3.94.55.03.98.5.95 1.05s-.5.98-1.05.95c-2.19-.11-4.349 1.04-5.478 2.95-.19.32-.52.49-.86.49zm20.604-.02c-.45 0-.86-.31-.97-.76-.39-1.6-1.05-3.1-1.97-4.47a1 1 0 01.27-1.39 1 1 0 011.39.27c1.05 1.57 1.81 3.29 2.26 5.11a1.002 1.002 0 01-.97 1.24zM2.889 9.7c-.17 0-.33-.04-.49-.13-.48-.27-.66-.88-.39-1.36C4.85 3.15 10.197 0 15.995 0c3.999 0 7.838 1.49 10.787 4.19.41.37.44 1 .06 1.41-.37.41-1 .44-1.41.06A13.96 13.96 0 0015.995 2C10.927 2 6.238 4.75 3.769 9.19c-.18.33-.52.51-.87.51z"/></symbol><symbol fill="none" viewBox="0 0 24 24" id="moon-24" xmlns="http://www.w3.org/2000/svg"><path fill="var(--primary-stroke)" fill-rule="evenodd" d="M12 1C5.925 1 1 5.925 1 12s4.925 11 11 11 11-4.925 11-11v-.11a1 1 0 00-1.715-.69A6 6 0 1112.8 2.715 1 1 0 0012.11 1zM3 12a9.004 9.004 0 016.939-8.763 8 8 0 0010.824 10.824A9 9 0 013 12" clip-rule="evenodd"/></symbol><symbol fill="none" viewBox="0 0 24 24" id="arrow-left-24" xmlns="http://www.w3.org/2000/svg"><path fill="var(--primary-stroke)" d="M11.707 7.707a1 1 0 00-1.414-1.414l-5 5a1 1 0 000 1.414l5 5a1 1 0 001.414-1.414L8.414 13H18a1 1 0 100-2H8.414z"/></symbol><symbol fill="none" viewBox="0 0 24 24" id="arrow-right-24" xmlns="http://www.w3.org/2000/svg"><path fill="var(--primary-stroke)" d="M12.293 7.707a1 1 0 011.414-1.414l5 5a1 1 0 010 1.414l-5 5a1 1 0 01-1.414-1.414L15.586 13H6a1 1 0 110-2h9.586z"/></symbol><symbol fill="none" viewBox="0 0 24 24" id="chevron-left-24" xmlns="http://www.w3.org/2000/svg"><path fill="var(--primary-stroke)" d="M13.707 7.707a1 1 0 00-1.414-1.414l-5 5a1 1 0 000 1.414l5 5a1 1 0 001.414-1.414L9.414 12z"/></symbol><symbol fill="none" viewBox="0 0 24 24" id="chevron-right-24" xmlns="http://www.w3.org/2000/svg"><path fill="var(--primary-stroke)" d="M10.293 7.707a1 1 0 111.414-1.414l5 5a1 1 0 010 1.414l-5 5a1 1 0 01-1.414-1.414L14.586 12z"/></symbol><symbol fill="none" viewBox="0 0 40 40" id="optimization-40" xmlns="http://www.w3.org/2000/svg"><g fill="var(--background)"><path d="M20 24a4 4 0 100-8 4 4 0 000 8"/><path fill-rule="evenodd" d="M39 20c0 10.493-8.507 19-19 19S1 30.493 1 20 9.507 1 20 1s19 8.507 19 19m-24.954-9.526l-.155-.138c-.716-.633-1.783-.711-2.499-.078q-.601.532-1.134 1.134c-.633.716-.555 1.783.078 2.499l.138.155c.511.579.584 1.407.287 2.12-.296.712-.937 1.26-1.707 1.308l-.208.012c-.954.06-1.764.759-1.822 1.712a13 13 0 000 1.604c.058.953.868 1.653 1.822 1.712l.208.012c.77.048 1.411.596 1.707 1.308s.224 1.541-.287 2.12l-.138.155c-.633.716-.711 1.783-.078 2.499q.532.602 1.134 1.134c.716.633 1.783.555 2.499-.078l.155-.138c.579-.511 1.407-.584 2.12-.287.712.296 1.26.937 1.308 1.707l.012.208c.06.954.759 1.764 1.712 1.822a13 13 0 001.604 0c.953-.058 1.653-.868 1.712-1.822l.012-.208c.048-.77.596-1.411 1.308-1.707s1.541-.224 2.12.287l.155.138c.716.633 1.783.711 2.499.078q.602-.532 1.134-1.134c.633-.716.555-1.783-.078-2.499l-.138-.155c-.511-.579-.584-1.407-.287-2.12.296-.712.937-1.26 1.707-1.308l.208-.012c.954-.06 1.764-.759 1.822-1.712a13 13 0 000-1.604c-.058-.953-.868-1.653-1.822-1.712l-.208-.012c-.77-.048-1.411-.596-1.707-1.308s-.224-1.541.287-2.12l.138-.155c.633-.716.711-1.783.078-2.499a13 13 0 00-1.134-1.134c-.716-.633-1.783-.555-2.499.078l-.155.138c-.579.511-1.407.584-2.12.287-.712-.296-1.26-.937-1.308-1.707l-.012-.208c-.06-.954-.759-1.764-1.712-1.822a13 13 0 00-1.604 0c-.953.058-1.653.868-1.712 1.822l-.012.208c-.048.77-.596 1.411-1.308 1.707s-1.541.224-2.12-.287" clip-rule="evenodd"/></g><g fill="var(--secondary-stroke)" fill-rule="evenodd" clip-rule="evenodd"><path d="M15 20a5 5 0 1110 0 5 5 0 01-10 0m5-3a3 3 0 100 6 3 3 0 000-6"/><path d="M19.066 6.03a14 14 0 011.868 0c1.49.099 2.491 1.347 2.573 2.687l.017.275c.02.315.26.665.694.846.425.177.83.1 1.073-.113l.206-.183c1.006-.889 2.596-1.064 3.719-.081q.706.617 1.323 1.323c.983 1.123.808 2.713-.081 3.719l-.182.206c-.215.242-.29.648-.114 1.073.18.435.53.674.846.694l.274.017c1.34.082 2.589 1.083 2.687 2.573a14 14 0 010 1.868c-.098 1.49-1.346 2.491-2.687 2.573l-.274.017c-.315.02-.665.26-.846.694-.177.425-.1.83.114 1.073l.182.206c.889 1.006 1.064 2.596.081 3.719q-.617.706-1.323 1.323c-1.123.983-2.713.808-3.719-.081l-.206-.182c-.242-.215-.648-.29-1.073-.114-.435.18-.674.53-.694.846l-.017.274c-.082 1.34-1.083 2.589-2.573 2.687a14 14 0 01-1.868 0c-1.49-.098-2.491-1.346-2.573-2.687l-.017-.274c-.02-.315-.26-.665-.694-.846-.425-.177-.83-.1-1.073.114l-.206.182c-1.006.889-2.596 1.064-3.719.081q-.706-.617-1.323-1.323c-.983-1.123-.808-2.713.081-3.719l.183-.206c.214-.242.29-.648.113-1.073-.18-.435-.53-.674-.846-.694l-.275-.017c-1.34-.082-2.588-1.083-2.686-2.573a14 14 0 010-1.868c.098-1.49 1.346-2.491 2.686-2.573l.275-.017c.315-.02.665-.26.846-.694.177-.425.1-.83-.113-1.073l-.183-.206c-.889-1.006-1.064-2.596-.081-3.719q.617-.706 1.323-1.323c1.123-.983 2.713-.808 3.719.081l.206.183c.242.214.648.29 1.073.113.435-.18.674-.53.694-.846l.017-.275c.082-1.34 1.083-2.588 2.573-2.686M20 8q-.405 0-.803.026c-.339.023-.678.326-.708.814l-.017.275c-.076 1.226-.932 2.158-1.923 2.57-1 .416-2.25.346-3.165-.462l-.206-.182c-.367-.325-.82-.299-1.077-.075a12 12 0 00-1.135 1.135c-.224.256-.25.71.075 1.077l.182.206c.808.914.878 2.165.462 3.165-.412.991-1.344 1.848-2.57 1.923l-.275.017c-.488.03-.791.37-.814.708a12 12 0 000 1.606c.023.339.326.678.814.708l.275.017c1.226.076 2.158.932 2.57 1.923.416 1 .346 2.25-.462 3.165l-.182.206c-.325.367-.299.82-.075 1.077q.53.605 1.135 1.135c.256.224.71.25 1.077-.075l.206-.182c.914-.808 2.165-.878 3.165-.462.991.412 1.848 1.344 1.923 2.57l.017.275c.03.488.37.791.708.814a12 12 0 001.606 0c.339-.023.678-.326.708-.814l.017-.275c.076-1.226.932-2.158 1.923-2.57 1-.416 2.25-.346 3.165.462l.206.182c.367.325.82.299 1.077.075a12 12 0 001.135-1.135c.224-.256.25-.71-.075-1.077l-.182-.206c-.808-.914-.878-2.165-.462-3.165.412-.991 1.344-1.848 2.57-1.923l.275-.017c.488-.03.791-.37.814-.708a12 12 0 000-1.606c-.023-.339-.326-.678-.814-.708l-.275-.017c-1.226-.076-2.158-.932-2.57-1.923-.416-1-.346-2.25.462-3.165l.182-.206c.325-.367.299-.82.075-1.077a12 12 0 00-1.135-1.135c-.256-.224-.71-.25-1.077.075l-.206.182c-.914.808-2.165.878-3.165.462-.991-.412-1.848-1.344-1.923-2.57l-.017-.275c-.03-.488-.37-.791-.708-.814A12 12 0 0020 8"/></g><path fill="var(--primary-stroke)" fill-rule="evenodd" d="M40 20c0 11.046-8.954 20-20 20S0 31.046 0 20 8.954 0 20 0s20 8.954 20 20m-2 0c0 9.941-8.059 18-18 18S2 29.941 2 20 10.059 2 20 2s18 8.059 18 18" clip-rule="evenodd"/></symbol><symbol fill="none" viewBox="0 0 40 40" id="problem-solving-40" xmlns="http://www.w3.org/2000/svg"><path fill="var(--background)" fill-rule="evenodd" d="M20 39c10.493 0 19-8.507 19-19S30.493 1 20 1 1 9.507 1 20s8.507 19 19 19m0-4a4 4 0 01-3.874-3H15v-7.515a9 9 0 1110 0V32h-1.126A4 4 0 0120 35" clip-rule="evenodd"/><path fill="var(--secondary-stroke)" fill-rule="evenodd" d="M26 25a9.99 9.99 0 004-8c0-5.523-4.477-10-10-10s-10 4.477-10 10a9.99 9.99 0 004 8v7a1 1 0 001 1h.416a5 5 0 009.168 0H25a1 1 0 001-1zm-14-8a8 8 0 1112.444 6.653 1 1 0 00-.444.832V25h-3v-2.465l2.555-1.703a1 1 0 00-1.11-1.664L20 20.798l-2.445-1.63a1 1 0 00-1.11 1.664L19 22.535V25h-3v-.515a1 1 0 00-.444-.832A7.99 7.99 0 0112 17m4 14v-1h8v1zm8-4v1h-8v-1zm-4 7a3 3 0 01-2.236-1h4.472c-.55.614-1.348 1-2.236 1" clip-rule="evenodd"/><path fill="var(--primary-stroke)" fill-rule="evenodd" d="M40 20c0 11.046-8.954 20-20 20S0 31.046 0 20 8.954 0 20 0s20 8.954 20 20m-2 0c0 9.941-8.059 18-18 18S2 29.941 2 20 10.059 2 20 2s18 8.059 18 18" clip-rule="evenodd"/></symbol><symbol fill="none" viewBox="0 0 32 32" id="references-32" xmlns="http://www.w3.org/2000/svg"><path fill="var(--background)" d="M25 28.001c3.643-2.736 6-7.094 6-12.001 0-8.284-6.716-15-15-15S1 7.716 1 16c0 4.907 2.357 9.265 6 12.001V17h7v-7l11 4z"/><g fill="var(--secondary-stroke)"><path d="M8 27.49a14 14 0 01-2-1.692V17a1 1 0 011-1h6v-6a1 1 0 011.342-.94l11 4A1 1 0 0126 14v11.798a14 14 0 01-2 1.693V14.7l-9-3.273V16h3a1 1 0 011 1v12.678a14 14 0 01-2 .287V18H8z"/><path d="M21 16a1 1 0 100 2h1a1 1 0 100-2zM9 20a1 1 0 011-1h1a1 1 0 110 2h-1a1 1 0 01-1-1m5-1a1 1 0 100 2h1a1 1 0 100-2zm6 1a1 1 0 011-1h1a1 1 0 110 2h-1a1 1 0 01-1-1m-10 2a1 1 0 100 2h1a1 1 0 100-2zm3 1a1 1 0 011-1h1a1 1 0 110 2h-1a1 1 0 01-1-1m8-1a1 1 0 100 2h1a1 1 0 100-2zM9 26a1 1 0 011-1h1a1 1 0 110 2h-1a1 1 0 01-1-1m5-1a1 1 0 100 2h1a1 1 0 100-2zm6 1a1 1 0 011-1h1a1 1 0 110 2h-1a1 1 0 01-1-1"/></g><path fill="var(--primary-stroke)" fill-rule="evenodd" d="M32 16c0 8.837-7.163 16-16 16S0 24.837 0 16 7.163 0 16 0s16 7.163 16 16m-2 0c0 7.732-6.268 14-14 14S2 23.732 2 16 8.268 2 16 2s14 6.268 14 14" clip-rule="evenodd"/></symbol><symbol fill="none" viewBox="0 0 80 80" id="references-80" xmlns="http://www.w3.org/2000/svg"><path fill="var(--background)" d="M61.5 72.544C72.045 65.563 79 53.594 79 40 79 18.46 61.54 1 40 1S1 18.46 1 40c0 13.16 6.517 24.796 16.5 31.859V44.5a2 2 0 012-2h15V27.374a2 2 0 012.695-1.876l23 8.519a2 2 0 011.305 1.875z"/><g fill="var(--secondary-stroke)"><path d="M19 70.467a37 37 0 01-3-2.306V44.5a3.5 3.5 0 013.5-3.5H33V27.374c0-2.438 2.43-4.13 4.716-3.283l23 8.519A3.5 3.5 0 0163 35.892v33.093a37 37 0 01-3 2.15V35.891a.5.5 0 00-.326-.469l-23-8.518a.5.5 0 00-.674.468V41h6.5a3.5 3.5 0 013.5 3.5v32.016q-1.481.242-3 .364V44.5a.5.5 0 00-.5-.5h-23a.5.5 0 00-.5.5z"/><path d="M24.5 48a1.5 1.5 0 000 3h3a1.5 1.5 0 100-3zm8.5 1.5a1.5 1.5 0 011.5-1.5h3a1.5 1.5 0 010 3h-3a1.5 1.5 0 01-1.5-1.5M24.5 55a1.5 1.5 0 000 3h3a1.5 1.5 0 100-3zm8.5 1.5a1.5 1.5 0 011.5-1.5h3a1.5 1.5 0 010 3h-3a1.5 1.5 0 01-1.5-1.5M24.5 62a1.5 1.5 0 000 3h3a1.5 1.5 0 100-3zm8.5 1.5a1.5 1.5 0 011.5-1.5h3a1.5 1.5 0 010 3h-3a1.5 1.5 0 01-1.5-1.5m17-21a1.5 1.5 0 011.5-1.5h3a1.5 1.5 0 010 3h-3a1.5 1.5 0 01-1.5-1.5m1.5 5.5a1.5 1.5 0 000 3h3a1.5 1.5 0 100-3zM50 56.5a1.5 1.5 0 011.5-1.5h3a1.5 1.5 0 010 3h-3a1.5 1.5 0 01-1.5-1.5m1.5 5.5a1.5 1.5 0 000 3h3a1.5 1.5 0 100-3z"/></g><path fill="var(--primary-stroke)" fill-rule="evenodd" d="M80 40c0 22.091-17.909 40-40 40S0 62.091 0 40 17.909 0 40 0s40 17.909 40 40m-3 0c0 20.435-16.565 37-37 37S3 60.435 3 40 19.566 3 40 3s37 16.566 37 37" clip-rule="evenodd"/></symbol><symbol fill="none" viewBox="0 0 32 32" id="skills-32" xmlns="http://www.w3.org/2000/svg"><g fill="var(--background)"><path fill-rule="evenodd" d="M28.974 23.534A14.93 14.93 0 0031 16c0-8.284-6.716-15-15-15S1 7.716 1 16s6.716 15 15 15c1.804 0 3.533-.318 5.135-.902L19.5 26.5 14 24l5.5-2.5L22 16l2.5 5.5zM12 8l-2 4-4 2 4 2 2 4 2-4 4-2-4-2z" clip-rule="evenodd"/><path d="M28.104 24.862L24.5 26.5l-1.18 2.596a15.1 15.1 0 004.784-4.234"/></g><g fill="var(--secondary-stroke)"><path d="M19.76 29.49l-1.015-2.235-5.159-2.345a1 1 0 010-1.82l5.159-2.345 2.345-5.159a1 1 0 011.82 0l2.345 5.159 3.283 1.492a14.06 14.06 0 01-5.99 6.14l1.042-2.29a1 1 0 01.496-.497l3.361-1.528.066-.094-3.427-1.558a1 1 0 01-.496-.496L22 18.417l-1.59 3.497a1 1 0 01-.496.496L16.417 24l3.497 1.59a1 1 0 01.496.496l1.24 2.727a14 14 0 01-1.89.676"/><path fill-rule="evenodd" d="M12 7a1 1 0 01.894.553l1.851 3.702 3.702 1.85a1 1 0 010 1.79l-3.702 1.85-1.85 3.702a1 1 0 01-1.79 0l-1.85-3.702-3.702-1.85a1 1 0 010-1.79l3.702-1.85 1.85-3.702A1 1 0 0112 7m0 3.236l-1.106 2.211a1 1 0 01-.447.447L8.237 14l2.21 1.106a1 1 0 01.447.447L12 17.763l1.106-2.21a1 1 0 01.447-.447L15.763 14l-2.21-1.106a1 1 0 01-.447-.447z" clip-rule="evenodd"/></g><path fill="var(--primary-stroke)" fill-rule="evenodd" d="M32 16c0 8.837-7.163 16-16 16S0 24.837 0 16 7.163 0 16 0s16 7.163 16 16m-2 0c0 7.732-6.268 14-14 14S2 23.732 2 16 8.268 2 16 2s14 6.268 14 14" clip-rule="evenodd"/></symbol><symbol fill="none" viewBox="0 0 80 80" id="skills-80" xmlns="http://www.w3.org/2000/svg"><g fill="var(--background)"><path fill-rule="evenodd" d="M57.042 75.09A38.84 38.84 0 0140 79C18.46 79 1 61.54 1 40S18.46 1 40 1s39 17.46 39 39c0 6.12-1.41 11.911-3.922 17.066L65 53.333 59.167 37.5l-5.834 15.833L37.5 59.167 53.333 65zM25 29.5L30 17l5 12.5 12.5 5-12.5 5L30 52l-5-12.5-12.5-5z" clip-rule="evenodd"/><path d="M62.435 71.905a39.2 39.2 0 009.443-9.431L65 65z"/></g><g fill="var(--secondary-stroke)"><path d="M54.99 73.837l-2.825-7.669-15.184-5.594a1.5 1.5 0 010-2.815l15.184-5.594 5.594-15.184a1.5 1.5 0 012.815 0l5.594 15.184 7.67 2.826q-.615 1.383-1.336 2.705l-8.02-2.955a1.5 1.5 0 01-.89-.89L59.168 41.84 54.74 53.852a1.5 1.5 0 01-.89.889l-12.01 4.426 12.013 4.426a1.5 1.5 0 01.889.888l2.955 8.021q-1.321.72-2.705 1.335"/><path d="M61.541 70.086q.021-.095.056-.188l1.995-5.417a1.5 1.5 0 01.89-.888l5.618-2.07a37.2 37.2 0 01-8.559 8.563"/><path fill-rule="evenodd" d="M30 15.5a1.5 1.5 0 011.393.943l4.761 11.903 11.903 4.761a1.5 1.5 0 010 2.786l-11.903 4.761-4.761 11.903a1.5 1.5 0 01-2.786 0l-4.761-11.903-11.903-4.761a1.5 1.5 0 010-2.786l11.903-4.761 4.761-11.903A1.5 1.5 0 0130 15.5m0 5.539l-3.607 9.018a1.5 1.5 0 01-.836.836L16.54 34.5l9.018 3.607a1.5 1.5 0 01.836.836L30 47.96l3.607-9.018a1.5 1.5 0 01.836-.836L43.46 34.5l-9.018-3.607a1.5 1.5 0 01-.836-.836z" clip-rule="evenodd"/></g><path fill="var(--primary-stroke)" fill-rule="evenodd" d="M80 40c0 22.091-17.909 40-40 40S0 62.091 0 40 17.909 0 40 0s40 17.909 40 40m-3 0c0 20.435-16.565 37-37 37S3 60.435 3 40 19.566 3 40 3s37 16.566 37 37" clip-rule="evenodd"/></symbol><symbol fill="none" viewBox="0 0 40 40" id="smile-40" xmlns="http://www.w3.org/2000/svg"><path fill="var(--background)" fill-rule="evenodd" d="M20 39c10.493 0 19-8.507 19-19S30.493 1 20 1 1 9.507 1 20s8.507 19 19 19m-8-12.9a2.5 2.5 0 012.5-2.5c.912 0 1.824.1 2.738.2.918.1 1.838.2 2.762.2s1.844-.1 2.762-.2c.914-.1 1.826-.2 2.738-.2a2.5 2.5 0 011.828 4.204A9.97 9.97 0 0120 31a9.97 9.97 0 01-7.328-3.196A2.5 2.5 0 0112 26.1" clip-rule="evenodd"/><g fill="var(--secondary-stroke)"><path d="M15 11.5a1 1 0 011 1v5a1 1 0 11-2 0v-5a1 1 0 011-1m10 0a1 1 0 011 1v5a1 1 0 11-2 0v-5a1 1 0 011-1"/><path fill-rule="evenodd" d="M11 26.1a3.5 3.5 0 013.5-3.5c1.842 0 3.658.4 5.5.4s3.657-.4 5.5-.4a3.5 3.5 0 012.56 5.885A10.97 10.97 0 0120 32a10.97 10.97 0 01-8.06-3.515A3.5 3.5 0 0111 26.1m3.5-1.5a1.5 1.5 0 00-1.097 2.522l.001.002A8.97 8.97 0 0020 30a8.97 8.97 0 006.596-2.876v-.002A1.5 1.5 0 0025.5 24.6c-1.84 0-3.656.4-5.499.4s-3.658-.4-5.5-.4" clip-rule="evenodd"/></g><path fill="var(--primary-stroke)" fill-rule="evenodd" d="M40 20c0 11.046-8.954 20-20 20S0 31.046 0 20 8.954 0 20 0s20 8.954 20 20m-2 0c0 9.941-8.059 18-18 18S2 29.941 2 20 10.059 2 20 2s18 8.059 18 18" clip-rule="evenodd"/></symbol><symbol fill="none" viewBox="0 0 24 24" id="sun-24" xmlns="http://www.w3.org/2000/svg"><g fill="var(--primary-stroke)"><path d="M13 1a1 1 0 10-2 0v2a1 1 0 102 0zM1 11a1 1 0 100 2h2a1 1 0 100-2zm20 0a1 1 0 100 2h2a1 1 0 100-2zm-8 10a1 1 0 10-2 0v2a1 1 0 102 0z"/><path fill-rule="evenodd" d="M12 6a6 6 0 100 12 6 6 0 000-12m-4 6a4 4 0 118 0 4 4 0 01-8 0" clip-rule="evenodd"/><path d="M3.293 3.293a1 1 0 011.414 0l1.5 1.5a1 1 0 01-1.414 1.414l-1.5-1.5a1 1 0 010-1.414m0 17.414a1 1 0 010-1.414l1.5-1.5a1 1 0 011.414 1.414l-1.5 1.5a1 1 0 01-1.414 0m14.5-14.5a1 1 0 010-1.414l1.5-1.5a1 1 0 111.414 1.414l-1.5 1.5a1 1 0 01-1.414 0m0 11.586a1 1 0 011.414 0l1.5 1.5a1 1 0 01-1.414 1.414l-1.5-1.5a1 1 0 010-1.414"/></g></symbol><symbol fill="none" viewBox="0 0 40 40" id="team-work-40" xmlns="http://www.w3.org/2000/svg"><path fill="var(--background)" fill-rule="evenodd" d="M39 20c0 2.85-.628 5.555-1.753 7.982l-.504-.384a4.5 4.5 0 00-1.583-.55A7.47 7.47 0 0131.5 28a7.47 7.47 0 01-3.66-.952 4.5 4.5 0 00-3.63 3.087 5 5 0 00-.43-.083A7.97 7.97 0 0120 31a7.96 7.96 0 01-3.78-.948 5 5 0 00-.43.083 4.5 4.5 0 00-3.63-3.087A7.47 7.47 0 018.5 28a7.47 7.47 0 01-3.66-.952 4.5 4.5 0 00-1.583.55l-.553.277A18.9 18.9 0 011 20C1 9.507 9.507 1 20 1s19 8.507 19 19M9.429 15H7.57A2.57 2.57 0 005 17.571V20.5a3.5 3.5 0 107 0v-2.929A2.57 2.57 0 009.429 15m11.714 2h-2.286A2.857 2.857 0 0016 19.857V23a4 4 0 008 0v-3.143A2.857 2.857 0 0021.143 17m9.428-2h1.858A2.57 2.57 0 0135 17.571V20.5a3.5 3.5 0 11-7 0v-2.929A2.57 2.57 0 0130.571 15" clip-rule="evenodd"/><g fill="var(--secondary-stroke)"><path d="M3.209 26.499a5.5 5.5 0 011.486-.44l.337-.05.297.166A6.47 6.47 0 008.5 27c1.153 0 2.234-.3 3.171-.825l.297-.166.337.05a5.5 5.5 0 014.134 3.017q.132.03.254.095A6.96 6.96 0 0020 30a6.96 6.96 0 003.307-.829q.12-.065.255-.095a5.5 5.5 0 014.133-3.018l.337-.049.297.166A6.47 6.47 0 0031.5 27c1.154 0 2.234-.3 3.171-.825l.297-.166.337.05a5.5 5.5 0 011.486.44 18 18 0 01-.825 1.821 3.5 3.5 0 00-.648-.224A8.5 8.5 0 0131.5 29a8.5 8.5 0 01-3.818-.904 3.5 3.5 0 00-2.097 1.466A5.94 5.94 0 0129 34.942v.65q-.965.559-2 .996v-1.647a3.94 3.94 0 00-3.021-3.833l-.046-.01A9 9 0 0120 32a9 9 0 01-3.933-.903l-.045.01A3.94 3.94 0 0013 34.942v1.647a18 18 0 01-2-.996v-.65a5.94 5.94 0 013.415-5.38 3.5 3.5 0 00-2.097-1.466A8.5 8.5 0 018.5 29a8.5 8.5 0 01-3.818-.904q-.338.082-.648.224a18 18 0 01-.824-1.82"/><path fill-rule="evenodd" d="M4 17.571A3.57 3.57 0 017.571 14H9.43A3.57 3.57 0 0113 17.571V20.5a4.5 4.5 0 11-9 0zM7.571 16C6.704 16 6 16.704 6 17.571V20.5a2.5 2.5 0 005 0v-2.929C11 16.704 10.297 16 9.429 16zM27 17.571A3.57 3.57 0 0130.571 14h1.858A3.57 3.57 0 0136 17.571V20.5a4.5 4.5 0 11-9 0zM30.571 16c-.867 0-1.571.704-1.571 1.571V20.5a2.5 2.5 0 005 0v-2.929c0-.867-.703-1.571-1.571-1.571zm-11.714 0A3.857 3.857 0 0015 19.857V23a5 5 0 0010 0v-3.143A3.857 3.857 0 0021.143 16zM17 19.857c0-1.026.831-1.857 1.857-1.857h2.286c1.026 0 1.857.831 1.857 1.857V23a3 3 0 11-6 0z" clip-rule="evenodd"/></g><path fill="var(--primary-stroke)" fill-rule="evenodd" d="M40 20c0 11.046-8.954 20-20 20S0 31.046 0 20 8.954 0 20 0s20 8.954 20 20m-2 0c0 9.941-8.059 18-18 18S2 29.941 2 20 10.059 2 20 2s18 8.059 18 18" clip-rule="evenodd"/></symbol><symbol fill="none" viewBox="0 0 32 32" id="telephone-32" xmlns="http://www.w3.org/2000/svg"><path fill="var(--background)" d="M25 28.001c3.643-2.736 6-7.094 6-12.001 0-8.284-6.716-15-15-15S1 7.716 1 16c0 4.907 2.357 9.265 6 12.001V15a3 3 0 013-3h12a3 3 0 013 3z"/><path fill="var(--secondary-stroke)" fill-rule="evenodd" d="M8 27.49V15a2 2 0 012-2h1v.8a2.2 2.2 0 002.2 2.2h5.6a2.2 2.2 0 002.2-2.2V13h1a2 2 0 012 2v12.49a14 14 0 002-1.692V15a4 4 0 00-4-4H10a4 4 0 00-4 4v10.798a14 14 0 002 1.693M13 13h6v.8a.2.2 0 01-.2.2h-5.6a.2.2 0 01-.2-.2z" clip-rule="evenodd"/><path fill="var(--primary-stroke)" fill-rule="evenodd" d="M32 16c0 8.837-7.163 16-16 16S0 24.837 0 16 7.163 0 16 0s16 7.163 16 16m-2 0c0 7.732-6.268 14-14 14S2 23.732 2 16 8.268 2 16 2s14 6.268 14 14" clip-rule="evenodd"/></symbol><symbol fill="none" viewBox="0 0 40 40" id="telephone-40" xmlns="http://www.w3.org/2000/svg"><path fill="var(--background)" d="M32 34.732c4.272-3.484 7-8.79 7-14.732C39 9.507 30.493 1 20 1S1 9.507 1 20c0 5.942 2.728 11.248 7 14.732V19a4 4 0 014-4h16a4 4 0 014 4z"/><path fill="var(--secondary-stroke)" fill-rule="evenodd" d="M9 34.249V19a3 3 0 013-3h1v1a3 3 0 003 3h8a3 3 0 003-3v-1h1a3 3 0 013 3v15.249c.71-.55 1.38-1.151 2-1.8V19a5 5 0 00-5-5H12a5 5 0 00-5 5v13.45c.62.648 1.29 1.25 2 1.799M15 17v-1h10v1a1 1 0 01-1 1h-8a1 1 0 01-1-1" clip-rule="evenodd"/><path fill="var(--primary-stroke)" fill-rule="evenodd" d="M40 20c0 11.046-8.954 20-20 20S0 31.046 0 20 8.954 0 20 0s20 8.954 20 20m-2 0c0 9.941-8.059 18-18 18S2 29.941 2 20 10.059 2 20 2s18 8.059 18 18" clip-rule="evenodd"/></symbol></svg>