<svg xmlns="http://www.w3.org/2000/svg" xmlns:xlink="http://www.w3.org/1999/xlink" style="display: none;"><symbol fill="none" viewBox="0 0 107 32" id="logo-compact" xmlns="http://www.w3.org/2000/svg"><path fill="var(--text)" d="M52.079 7.851c-.36 0-.67.129-.95.376-.27.247-.41.554-.41.93v8.955c0 .416-.12.792-.34 1.148-.23.356-.53.643-.9.85a2.44 2.44 0 01-1.21.317c-.36 0-.68-.05-.96-.158a2.9 2.9 0 01-.85-.544 3 3 0 00-.57-.446 1.2 1.2 0 00-.64-.187c-.27 0-.55.118-.83.366a1.14 1.14 0 00-.419.9c0 .238.09.495.26.742a4.4 4.4 0 001.72 1.405c.7.327 1.46.495 2.28.495q1.44 0 2.609-.683a5.23 5.23 0 001.85-1.79q.69-1.114.69-2.405V9.157c0-.366-.12-.683-.37-.93-.24-.247-.57-.376-.97-.376zm14.327 7.006c-.24-.139-.49-.248-.74-.357q.855-.4 1.32-1.098c.33-.505.5-1.088.5-1.761 0-1.247-.34-2.197-1.01-2.83-.67-.643-1.7-.96-3.08-.96h-5.428c-.37 0-.69.129-.94.376s-.38.554-.38.93v12.32c0 .365.12.682.38.93.25.247.56.375.94.375h5.359c.53 0 1.08-.06 1.66-.178a4.8 4.8 0 001.62-.673c.5-.326.91-.791 1.22-1.385s.46-1.365.46-2.305c0-.851-.18-1.554-.53-2.098s-.8-.97-1.34-1.277zm-2.2-4.067c.31.277.46.722.46 1.336 0 .514-.17.9-.5 1.167s-.7.406-1.119.406h-3.62v-3.325h3.55c.5 0 .91.139 1.22.416zm.68 9.014c-.39.346-.91.524-1.57.524h-3.878v-4.116h3.729c.3 0 .63.04.99.109q.54.104.93.534c.26.287.39.742.39 1.386 0 .692-.19 1.217-.58 1.563zm21.657-4.947c-.24-.139-.49-.248-.74-.357q.855-.4 1.32-1.098c.33-.505.5-1.088.5-1.761 0-1.247-.34-2.197-1.01-2.83-.67-.643-1.7-.96-3.08-.96h-5.428c-.37 0-.69.129-.94.376s-.38.554-.38.93v12.32c0 .365.13.682.38.93.25.247.56.375.94.375h5.359c.53 0 1.08-.06 1.66-.178a4.7 4.7 0 001.62-.673c.51-.326.91-.791 1.219-1.385s.46-1.365.46-2.305c0-.851-.18-1.554-.53-2.098a3.9 3.9 0 00-1.33-1.277zm-2.2-4.067c.31.277.46.722.46 1.336 0 .514-.17.9-.5 1.167s-.7.406-1.12.406h-3.619v-3.325h3.55c.5 0 .91.139 1.22.416zm.68 9.014c-.39.346-.91.524-1.57.524h-3.879v-4.116h3.73c.3 0 .63.04.99.109q.54.104.93.534c.26.287.39.742.39 1.386 0 .692-.19 1.217-.58 1.563zm15.078-8.648c-.37 0-.68.128-.93.376-.25.247-.37.554-.37.93v.04a5 5 0 00-.42-.357c-.38-.287-.83-.514-1.35-.702a5 5 0 00-1.7-.277c-.959 0-1.839.247-2.629.752a5.3 5.3 0 00-1.88 2.088c-.46.89-.7 1.91-.7 3.077s.23 2.167.7 3.057 1.1 1.584 1.91 2.088c.8.505 1.7.752 2.69.752.55 0 1.05-.089 1.52-.267s.87-.396 1.22-.653c.26-.198.47-.396.65-.594 0 .366.12.673.37.92.24.248.55.377.929.377.38 0 .68-.13.93-.377s.37-.554.37-.93v-8.994c0-.386-.12-.693-.37-.94s-.55-.366-.93-.366zm-1.58 7.738c-.27.544-.63.97-1.11 1.276-.47.317-1.03.465-1.66.465s-1.159-.158-1.639-.465a3.3 3.3 0 01-1.11-1.276c-.27-.545-.4-1.148-.4-1.811s.13-1.296.4-1.83c.27-.545.63-.97 1.11-1.277.47-.317 1.02-.465 1.64-.465s1.18.158 1.66.465a3.3 3.3 0 011.11 1.276c.27.535.4 1.148.4 1.83 0 .684-.13 1.277-.4 1.812m8.118-11.518a1.22 1.22 0 00-.92-.376c-.38 0-.69.129-.94.376s-.38.554-.38.93v13.17c0 .366.12.683.37.93.25.248.55.376.91.376s.69-.128.94-.376c.25-.247.38-.554.38-.93V8.306c0-.366-.12-.683-.36-.93"/><path fill="var(--symbol)" d="M15.99 32a15.86 15.86 0 01-11.233-4.62 1 1 0 010-1.42 1 1 0 011.42 0A13.93 13.93 0 0016.01 30c7.715 0 13.991-6.28 13.991-14 0-.55.45-1 1-1s.999.45.999 1c0 8.82-7.175 16-15.99 16zm0-4C9.374 28 3.998 22.62 3.998 16c0-4.59 2.678-8.84 6.815-10.83a.99.99 0 011.33.47c.24.5.03 1.09-.47 1.33-3.448 1.65-5.687 5.2-5.687 9.02 0 5.51 4.488 10 9.994 10 2.748 0 5.317-1.1 7.226-3.09a.996.996 0 111.44 1.38 11.9 11.9 0 01-8.666 3.7zM3.228 24.87c-.33 0-.66-.17-.85-.47A16.02 16.02 0 01.57 11.77c.15-.53.7-.85 1.229-.7s.85.7.7 1.23a14.01 14.01 0 001.578 11.05 1.006 1.006 0 01-.849 1.53zM15.99 24c-4.407 0-7.995-3.59-7.995-8v-.14c.01-.54.46-.97 1-.97h.03a.99.99 0 01.969 1.03c0 3.4 2.688 6.09 5.996 6.09a6.003 6.003 0 003.208-11.07c-.47-.3-.6-.91-.31-1.38.3-.46.91-.6 1.38-.31a7.96 7.96 0 013.707 6.76c0 4.41-3.588 8-7.995 8zm9.964-2.35a.994.994 0 01-.9-1.42c.62-1.33.93-2.75.93-4.22 0-5.51-4.487-10-9.994-10-.4 0-.8.02-1.19.07a1 1 0 01-1.109-.88c-.06-.55.33-1.05.88-1.11.47-.06.95-.08 1.429-.08 6.616 0 11.993 5.38 11.993 12 0 1.77-.38 3.48-1.12 5.07-.17.36-.53.58-.91.58zM15.99 20a4 4 0 01-3.998-4 3.998 3.998 0 015.797-3.57.998.998 0 01-.9 1.78q-.42-.21-.899-.21c-1.1 0-1.999.9-1.999 2s.9 2 1.999 2c1.02 0 1.879-.76 1.989-1.78.06-.55.55-.95 1.1-.88.549.06.948.55.878 1.1A3.99 3.99 0 0115.98 20zm-6.036-6.55a.96.96 0 01-.51-.14.996.996 0 01-.35-1.37 8.05 8.05 0 016.896-3.95h.4c.55.03.98.5.95 1.05s-.5.98-1.05.95c-2.179-.1-4.347 1.04-5.477 2.95-.19.32-.52.49-.86.49zm20.597-.02c-.45 0-.86-.31-.97-.76-.39-1.6-1.049-3.1-1.968-4.47a1 1 0 01.27-1.39 1 1 0 011.389.27 16.1 16.1 0 012.258 5.11 1 1 0 01-.98 1.24M2.888 9.7c-.17 0-.33-.04-.49-.13-.48-.27-.66-.88-.39-1.36C4.848 3.15 10.195 0 15.99 0c3.998 0 7.835 1.49 10.783 4.19.41.37.44 1 .06 1.41-.37.41-1 .43-1.409.06A13.95 13.95 0 0015.99 2C10.923 2 6.236 4.75 3.768 9.19c-.18.33-.52.51-.87.51z"/></symbol><symbol fill="none" viewBox="0 0 228 32" id="logo-full" xmlns="http://www.w3.org/2000/svg"><path fill="var(--text)" d="M226.19 7.08c.38 0 .68.13.92.38s.36.57.36.94v13.31c0 .38-.13.69-.38.94s-.58.38-.94.38-.66-.13-.91-.38-.37-.57-.37-.94V8.4c0-.38.13-.69.38-.94s.56-.38.94-.38m-71.035.46c-.457 0-.796.08-1.015.23-.22.15-.33.43-.33.85v.41q0 .6.3.84c.2.16.55.24 1.03.24s.84-.08 1.05-.23c.22-.15.32-.43.32-.85v-.41q0-.6-.3-.84c-.199-.16-.548-.24-1.055-.24m0 0h-.005.01zM52.09 7.95c-.36 0-.67.13-.95.38-.27.25-.41.56-.41.94v9.05c0 .42-.12.8-.34 1.16-.23.36-.53.65-.9.86s-.78.32-1.21.32c-.36 0-.68-.05-.96-.16s-.56-.29-.85-.55a3 3 0 00-.57-.45c-.21-.13-.42-.19-.64-.19-.27 0-.55.12-.83.37-.28.24-.42.55-.42.91 0 .24.09.5.26.75.44.62 1.02 1.09 1.72 1.42s1.46.5 2.28.5q1.44 0 2.61-.69a5.26 5.26 0 001.85-1.81q.69-1.125.69-2.43V9.26c0-.37-.12-.69-.37-.94-.24-.25-.57-.38-.97-.38z"/><path fill="var(--text)" fill-rule="evenodd" d="M65.25 12.98c-.5-.52-1.08-.94-1.73-1.24s-1.35-.45-2.08-.45c-.95 0-1.85.24-2.69.73-.85.49-1.53 1.19-2.06 2.1-.52.91-.79 2.01-.79 3.31q0 1.665.72 2.97c.48.87 1.17 1.57 2.07 2.08s1.96.76 3.18.76c.72 0 1.41-.12 2.09-.36.67-.24 1.2-.51 1.57-.83q.6-.48.6-1.05c0-.29-.1-.54-.31-.75-.21-.22-.47-.32-.79-.32-.23 0-.47.06-.73.19-.16.09-.33.19-.53.31s-.45.23-.76.31-.74.13-1.27.13c-.57 0-1.12-.14-1.63-.42s-.93-.69-1.25-1.23c-.19-.31-.31-.67-.39-1.07h7.1c.34 0 .65-.11.9-.32.26-.21.4-.5.41-.84 0-.78-.15-1.51-.44-2.2s-.69-1.3-1.2-1.82zm-5.99 1.43c.27-.27.6-.47.97-.58s.78-.17 1.21-.17.86.1 1.26.29.73.46.99.79c.27.33.41.7.44 1.12v.15H58.5l.006-.033c.028-.16.057-.327.104-.467.16-.46.37-.83.65-1.1m18.39-2.74c.25-.25.56-.38.93-.38v-.01c.38 0 .68.12.93.37s.37.56.37.95v9.1c0 .38-.12.69-.37.94s-.55.38-.93.38-.69-.13-.93-.38a1.3 1.3 0 01-.36-.93c-.18.2-.39.4-.65.6-.35.26-.75.48-1.22.66s-.97.27-1.52.27c-.99 0-1.88-.25-2.69-.76s-1.44-1.21-1.91-2.11-.7-1.91-.7-3.09.24-2.21.7-3.11 1.09-1.6 1.88-2.11 1.67-.76 2.63-.76c.62 0 1.18.09 1.7.28s.97.42 1.35.71c.16.12.29.24.42.36v-.04c0-.38.12-.69.37-.94m-1.76 8.73q.705-.465 1.11-1.29c.27-.54.4-1.14.4-1.83s-.13-1.3-.4-1.85q-.405-.81-1.11-1.29c-.47-.31-1.04-.47-1.66-.47s-1.17.15-1.64.47q-.705.465-1.11 1.29c-.27.54-.4 1.18-.4 1.85s.13 1.28.4 1.83q.405.81 1.11 1.29c.48.31 1.01.47 1.64.47s1.19-.15 1.66-.47" clip-rule="evenodd"/><path fill="var(--text)" d="M91.26 11.95c-.55-.45-1.36-.67-2.42-.67-.49 0-.94.08-1.36.23s-.79.35-1.12.59a5 5 0 00-1.022.99l-.078.1v-.37c0-.37-.12-.69-.37-.94-.24-.25-.55-.38-.93-.38s-.68.12-.93.38c-.24.25-.37.56-.37.94v8.9c0 .37.12.69.37.94s.55.38.93.38.68-.13.93-.38.37-.56.37-.94v-5.51c0-.47.1-.9.31-1.28s.51-.69.9-.92c.4-.23.88-.34 1.45-.34s1.04.12 1.36.34c.32.23.54.54.66.92s.18.81.18 1.28v5.51c0 .37.12.69.37.94.24.25.55.38.93.38s.68-.13.93-.38c.24-.25.37-.56.37-.94v-5.51c0-.9-.1-1.73-.31-2.47s-.59-1.33-1.14-1.78zm5.24 3.19h3.75v.01c.38 0 .69.13.94.38s.38.59.38.94-.13.65-.38.89-.57.36-.94.36H96.5c-.38 0-.69-.13-.94-.37-.25-.25-.38-.55-.38-.93s.13-.68.38-.92.57-.36.94-.36"/><path fill="var(--text)" fill-rule="evenodd" d="M114.03 15.02c-.24-.14-.49-.25-.74-.36q.855-.405 1.32-1.11c.33-.51.5-1.1.5-1.78 0-1.26-.34-2.22-1.01-2.86-.67-.65-1.7-.97-3.08-.97h-5.43c-.37 0-.69.13-.94.38s-.38.56-.38.94v12.45c0 .37.13.69.38.94s.56.38.94.38h5.36c.53 0 1.08-.06 1.66-.18.57-.12 1.11-.35 1.62-.68.5-.33.91-.8 1.22-1.4s.46-1.38.46-2.33c0-.86-.18-1.57-.53-2.12s-.8-.98-1.34-1.29zm-2.2-4.11c.31.28.46.73.46 1.35 0 .52-.17.91-.5 1.18s-.7.41-1.12.41h-3.62v-3.36h3.55c.5 0 .91.14 1.22.42zm.68 9.11c-.39.35-.91.53-1.57.53h-3.88v-4.16h3.73c.3 0 .63.04.99.11q.54.105.93.54c.26.29.39.75.39 1.4 0 .7-.19 1.23-.58 1.58zm14.15-8.35c.25-.25.56-.38.93-.38v-.01c.38 0 .68.12.93.37s.37.56.37.95v9.1c0 .38-.12.69-.37.94s-.55.38-.93.38-.69-.13-.93-.38a1.3 1.3 0 01-.36-.93c-.18.2-.39.4-.65.6-.35.26-.75.48-1.22.66s-.97.27-1.52.27c-.99 0-1.88-.25-2.69-.76s-1.44-1.21-1.91-2.11-.7-1.91-.7-3.09.24-2.21.7-3.11 1.09-1.6 1.88-2.11 1.67-.76 2.63-.76c.62 0 1.18.09 1.7.28s.97.42 1.35.71c.16.12.29.24.42.36v-.04c0-.38.12-.69.37-.94m-1.76 8.73q.705-.465 1.11-1.29c.27-.54.4-1.14.4-1.83s-.13-1.3-.4-1.85q-.405-.81-1.11-1.29c-.47-.31-1.04-.47-1.66-.47s-1.17.15-1.64.47q-.705.465-1.11 1.29c-.27.54-.4 1.18-.4 1.85s.13 1.28.4 1.83q.405.81 1.11 1.29c.48.31 1.01.47 1.64.47s1.19-.15 1.66-.47m15.45-8.35c-.8-.51-1.7-.76-2.7-.76-.5 0-.98.09-1.43.26q-.675.255-1.2.66c-.31.24-.56.48-.75.73v-.11c0-.37-.12-.69-.37-.94-.24-.25-.55-.38-.93-.38s-.68.12-.93.38c-.24.25-.37.56-.37.94v13.2c0 .39.12.7.37.95s.55.37.93.37.68-.13.93-.38.37-.56.37-.94V21.8c.15.15.33.31.53.46.38.29.82.52 1.32.71s1.04.28 1.62.28c.98 0 1.86-.25 2.64-.76s1.41-1.21 1.87-2.11c.47-.9.7-1.93.7-3.11s-.23-2.21-.7-3.1-1.1-1.59-1.9-2.1zm-.28 7.04c-.27.55-.63.99-1.1 1.3-.47.32-1.02.47-1.65.47s-1.18-.16-1.66-.47c-.47-.32-.84-.75-1.11-1.3s-.4-1.17-.4-1.84.13-1.3.4-1.84.64-.97 1.11-1.28c.47-.32 1.03-.47 1.66-.47s1.18.16 1.65.47c.47.32.83.74 1.1 1.28s.4 1.15.4 1.84-.13 1.29-.4 1.84" clip-rule="evenodd"/><path fill="var(--text)" d="M151.3 13.76a1.2 1.2 0 01-.86.33h-1.54v5.84c0 .21.04.37.12.5.07.13.18.22.32.28.13.06.28.09.44.09.17 0 .32-.03.47-.1s.31-.1.5-.1c.2 0 .38.09.55.28s.25.45.25.78q0 .6-.66.99t-1.41.39c-.3 0-.63-.03-1-.08-.36-.05-.71-.18-1.03-.37-.33-.19-.6-.49-.81-.89s-.32-.96-.32-1.66v-5.95h-.99c-.34 0-.63-.11-.86-.34s-.34-.53-.34-.86.11-.61.34-.83.52-.33.86-.33h.99v-1.38c0-.38.13-.69.38-.94s.56-.38.94-.38.68.13.92.38c.23.25.35.57.35.94v1.38h1.53c.34 0 .63.11.86.34.22.23.34.53.34.86s-.11.61-.34.83m2.93-1.88c.25-.26.56-.38.93-.38.38 0 .69.13.93.38.25.25.37.57.37.94v8.9c0 .38-.12.69-.37.94s-.55.38-.93.38-.68-.13-.93-.38-.37-.57-.37-.94v-8.9c0-.38.13-.69.37-.94m11.85 5.35c-.37-.26-.78-.47-1.23-.62s-.88-.29-1.31-.41l-.06-.017c-.397-.114-.767-.22-1.11-.343-.36-.13-.66-.28-.87-.47-.22-.19-.32-.46-.32-.79 0-.36.09-.62.28-.79s.41-.27.66-.32.48-.08.7-.08c.53 0 1 .09 1.41.28s.74.44.98.75c.19.17.42.27.71.29s.54-.05.75-.23c.3-.24.44-.52.41-.82s-.12-.56-.28-.78c-.3-.39-.67-.7-1.12-.94a5.5 5.5 0 00-1.4-.52 6.4 6.4 0 00-1.4-.16c-.7 0-1.38.14-2.01.41-.64.27-1.16.66-1.56 1.16q-.6.75-.6 1.83c0 .63.12 1.16.37 1.57.24.42.56.75.95 1s.81.46 1.28.61c.47.16.92.3 1.37.43.43.11.82.24 1.17.37s.64.29.85.47c.22.19.32.44.32.75 0 .37-.1.65-.29.83s-.42.29-.68.34-.5.08-.71.1c-.69 0-1.26-.11-1.72-.34s-.9-.55-1.31-.97c-.24-.24-.5-.38-.75-.4s-.5.04-.73.18c-.36.23-.55.5-.56.82s.05.58.19.78c.56.75 1.26 1.27 2.11 1.56s1.69.44 2.54.44c.67 0 1.34-.13 1.98-.4q.975-.405 1.62-1.17c.43-.52.65-1.14.65-1.87 0-.63-.11-1.15-.34-1.56s-.53-.74-.91-1zm9.49-3.47a1.2 1.2 0 01-.86.33h-1.54v5.84c0 .21.04.37.12.5.07.13.18.22.32.28.13.06.28.09.44.09.17 0 .32-.03.47-.1s.31-.1.5-.1c.2 0 .38.09.55.28s.25.45.25.78q0 .6-.66.99t-1.41.39c-.3 0-.63-.03-1-.08-.36-.05-.71-.18-1.03-.37-.33-.19-.6-.49-.81-.89s-.32-.96-.32-1.66v-5.95h-.99c-.34 0-.63-.11-.86-.34s-.34-.53-.34-.86.11-.61.34-.83.52-.33.86-.33h.99v-1.38c0-.38.13-.69.38-.94s.56-.38.94-.38.68.13.92.38c.23.25.35.57.35.94v1.38h1.53c.34 0 .63.11.86.34.22.23.34.53.34.86s-.11.61-.34.83"/><path fill="var(--text)" fill-rule="evenodd" d="M187.1 12.98c-.5-.52-1.08-.94-1.73-1.24s-1.35-.45-2.08-.45c-.95 0-1.85.24-2.69.73-.85.49-1.53 1.19-2.06 2.1-.52.91-.79 2.01-.79 3.31q0 1.665.72 2.97c.48.87 1.17 1.57 2.07 2.08s1.96.76 3.18.76c.72 0 1.41-.12 2.09-.36.67-.24 1.2-.51 1.57-.83q.6-.48.6-1.05c0-.29-.1-.54-.31-.75-.21-.22-.47-.32-.79-.32-.23 0-.47.06-.73.19-.16.09-.33.19-.53.31-.19.12-.45.23-.76.31-.32.09-.74.13-1.27.13-.58 0-1.12-.14-1.63-.42s-.93-.69-1.25-1.23c-.19-.31-.31-.67-.39-1.07h7.1c.34 0 .65-.11.9-.32.26-.21.39-.5.41-.84 0-.78-.15-1.51-.44-2.2s-.69-1.3-1.2-1.82zm-5.99 1.43c.27-.27.6-.47.97-.58.37-.12.78-.17 1.21-.17s.87.1 1.26.29.73.46.99.79c.27.33.41.7.44 1.12v.15h-5.63l.006-.033c.028-.16.057-.327.104-.467.16-.46.37-.83.65-1.1m25.16.25c.25.11.5.22.74.36l.01.01c.54.31.99.74 1.34 1.29s.53 1.26.53 2.12c0 .95-.15 1.73-.46 2.33s-.72 1.07-1.22 1.4c-.51.33-1.04.56-1.62.68s-1.13.18-1.66.18h-5.36c-.38 0-.69-.13-.94-.38a1.3 1.3 0 01-.38-.94V9.26c0-.38.13-.69.38-.94s.57-.38.94-.38H204c1.38 0 2.41.32 3.08.97.67.64 1.01 1.6 1.01 2.86 0 .68-.17 1.27-.5 1.78q-.465.705-1.32 1.11m-1-2.4c0-.62-.15-1.07-.46-1.35h-.01c-.31-.28-.72-.42-1.22-.42h-3.55v3.36h3.62c.42 0 .79-.14 1.12-.41s.5-.66.5-1.18m-1.35 8.29c.66 0 1.18-.18 1.57-.53h.01c.39-.35.58-.88.58-1.58 0-.65-.13-1.11-.39-1.4q-.39-.435-.93-.54c-.36-.07-.69-.11-.99-.11h-3.73v4.16zm16.65-9.26c-.37 0-.68.13-.93.38s-.37.56-.37.94v.04c-.13-.12-.26-.24-.42-.36-.38-.29-.83-.52-1.35-.71a4.9 4.9 0 00-1.7-.28c-.96 0-1.84.25-2.63.76s-1.42 1.21-1.88 2.11-.7 1.93-.7 3.11.23 2.19.7 3.09 1.1 1.6 1.91 2.11 1.7.76 2.69.76c.55 0 1.05-.09 1.52-.27s.87-.4 1.22-.66c.26-.2.47-.4.65-.6q0 .555.36.93c.24.25.55.38.93.38s.68-.13.93-.38.37-.56.37-.94v-9.1c0-.39-.12-.7-.37-.95s-.55-.37-.93-.37zm-1.58 7.82c-.27.55-.63.98-1.11 1.29-.47.32-1.03.47-1.66.47s-1.16-.16-1.64-.47q-.705-.48-1.11-1.29c-.27-.54-.4-1.16-.4-1.83s.13-1.31.4-1.85.64-.98 1.11-1.29c.47-.32 1.02-.47 1.64-.47s1.18.16 1.66.47q.705.48 1.11 1.29c.27.54.4 1.16.4 1.85s-.13 1.29-.4 1.83" clip-rule="evenodd"/><path fill="var(--symbol)" d="M15.995 32c-4.239 0-8.227-1.64-11.236-4.62a1 1 0 010-1.42.986.986 0 011.41 0A13.93 13.93 0 0016.005 30c7.718 0 13.996-6.28 13.996-14 0-.55.45-1 1-1s.999.45.999 1c0 8.82-7.178 16-15.995 16zm0-4C9.377 28 3.999 22.62 3.999 16c0-4.59 2.679-8.84 6.818-10.83a.99.99 0 011.33.47c.24.5.03 1.09-.47 1.33-3.45 1.65-5.689 5.2-5.689 9.02 0 5.51 4.489 10 9.997 10a9.94 9.94 0 007.228-3.09.996.996 0 011.41-.03c.4.38.41 1.01.03 1.41a11.9 11.9 0 01-8.668 3.7zM3.229 24.87a1 1 0 01-.85-.47A16.01 16.01 0 01.57 11.77c.15-.53.7-.85 1.23-.7s.85.7.7 1.23a14 14 0 001.58 11.05 1.006 1.006 0 01-.85 1.53zM15.995 24c-4.409 0-7.997-3.59-7.997-8v-.13c0-.55.45-.99 1-.99h.01c.549 0 .989.46.989 1.01v.1c0 3.31 2.689 6 5.998 6a6.004 6.004 0 005.998-6 5.98 5.98 0 00-2.789-5.07c-.47-.3-.6-.91-.31-1.38.3-.47.91-.6 1.38-.31a7.956 7.956 0 013.709 6.76c0 4.41-3.59 8-7.998 8zm9.967-2.35a.994.994 0 01-.9-1.42c.62-1.33.93-2.75.93-4.22 0-5.51-4.489-10-9.997-10-.4 0-.8.02-1.19.07a1.001 1.001 0 11-.23-1.99c.47-.06.95-.08 1.43-.08 6.618 0 11.996 5.38 11.996 12 0 1.77-.38 3.48-1.12 5.07-.17.36-.53.58-.91.58zM15.995 20a4 4 0 01-3.999-4c0-2.21 1.79-4 3.999-4 .62 0 1.24.15 1.8.43a.998.998 0 01-.9 1.78q-.42-.21-.9-.21c-1.1 0-2 .9-2 2s.9 2 2 2c1.02 0 1.88-.76 1.99-1.78.06-.55.57-.94 1.099-.88.55.06.94.56.88 1.1A3.99 3.99 0 0115.985 20zm-6.038-6.55a.96.96 0 01-.51-.14.996.996 0 01-.35-1.37c1.5-2.55 4.379-4.08 7.298-3.94.55.03.98.5.95 1.05s-.5.98-1.05.95c-2.19-.11-4.349 1.04-5.478 2.95-.19.32-.52.49-.86.49zm20.604-.02c-.45 0-.86-.31-.97-.76-.39-1.6-1.05-3.1-1.97-4.47a1 1 0 01.27-1.39 1 1 0 011.39.27c1.05 1.57 1.81 3.29 2.26 5.11a1.002 1.002 0 01-.97 1.24zM2.889 9.7c-.17 0-.33-.04-.49-.13-.48-.27-.66-.88-.39-1.36C4.85 3.15 10.197 0 15.995 0c3.999 0 7.838 1.49 10.787 4.19.41.37.44 1 .06 1.41-.37.41-1 .44-1.41.06A13.96 13.96 0 0015.995 2C10.927 2 6.238 4.75 3.769 9.19c-.18.33-.52.51-.87.51z"/></symbol><symbol fill="none" viewBox="0 0 32 32" id="logo-square" xmlns="http://www.w3.org/2000/svg"><path fill="var(--symbol)" d="M15.995 32c-4.239 0-8.227-1.64-11.236-4.62a1 1 0 010-1.42.986.986 0 011.41 0A13.93 13.93 0 0016.005 30c7.718 0 13.996-6.28 13.996-14 0-.55.45-1 1-1s.999.45.999 1c0 8.82-7.178 16-15.995 16zm0-4C9.377 28 3.999 22.62 3.999 16c0-4.59 2.679-8.84 6.818-10.83a.99.99 0 011.33.47c.24.5.03 1.09-.47 1.33-3.45 1.65-5.689 5.2-5.689 9.02 0 5.51 4.489 10 9.997 10a9.94 9.94 0 007.228-3.09.996.996 0 011.41-.03c.4.38.41 1.01.03 1.41a11.9 11.9 0 01-8.668 3.7zM3.229 24.87a1 1 0 01-.85-.47A16.01 16.01 0 01.57 11.77c.15-.53.7-.85 1.23-.7s.85.7.7 1.23a14 14 0 001.58 11.05 1.006 1.006 0 01-.85 1.53zM15.995 24c-4.409 0-7.997-3.59-7.997-8v-.13c0-.55.45-.99 1-.99h.01c.549 0 .989.46.989 1.01v.1c0 3.31 2.689 6 5.998 6a6.004 6.004 0 005.998-6 5.98 5.98 0 00-2.789-5.07c-.47-.3-.6-.91-.31-1.38.3-.47.91-.6 1.38-.31a7.956 7.956 0 013.709 6.76c0 4.41-3.59 8-7.998 8zm9.967-2.35a.994.994 0 01-.9-1.42c.62-1.33.93-2.75.93-4.22 0-5.51-4.489-10-9.997-10-.4 0-.8.02-1.19.07a1.001 1.001 0 11-.23-1.99c.47-.06.95-.08 1.43-.08 6.618 0 11.996 5.38 11.996 12 0 1.77-.38 3.48-1.12 5.07-.17.36-.53.58-.91.58zM15.995 20a4 4 0 01-3.999-4c0-2.21 1.79-4 3.999-4 .62 0 1.24.15 1.8.43a.998.998 0 01-.9 1.78q-.42-.21-.9-.21c-1.1 0-2 .9-2 2s.9 2 2 2c1.02 0 1.88-.76 1.99-1.78.06-.55.57-.94 1.099-.88.55.06.94.56.88 1.1A3.99 3.99 0 0115.985 20zm-6.038-6.55a.96.96 0 01-.51-.14.996.996 0 01-.35-1.37c1.5-2.55 4.379-4.08 7.298-3.94.55.03.98.5.95 1.05s-.5.98-1.05.95c-2.19-.11-4.349 1.04-5.478 2.95-.19.32-.52.49-.86.49zm20.604-.02c-.45 0-.86-.31-.97-.76-.39-1.6-1.05-3.1-1.97-4.47a1 1 0 01.27-1.39 1 1 0 011.39.27c1.05 1.57 1.81 3.29 2.26 5.11a1.002 1.002 0 01-.97 1.24zM2.889 9.7c-.17 0-.33-.04-.49-.13-.48-.27-.66-.88-.39-1.36C4.85 3.15 10.197 0 15.995 0c3.999 0 7.838 1.49 10.787 4.19.41.37.44 1 .06 1.41-.37.41-1 .44-1.41.06A13.96 13.96 0 0015.995 2C10.927 2 6.238 4.75 3.769 9.19c-.18.33-.52.51-.87.51z"/></symbol></svg>