<svg width="32" height="32" viewBox="0 0 32 32" fill="none" xmlns="http://www.w3.org/2000/svg">
<path d="M15.995 32C11.7563 32 7.76757 30.36 4.75851 27.38C4.36864 26.99 4.35864 26.36 4.75851 25.96C5.14839 25.57 5.77819 25.56 6.16807 25.96C8.80725 28.56 12.2962 30 16.005 30C23.7226 30 30.0006 23.72 30.0006 16C30.0006 15.45 30.4505 15 31.0003 15C31.5501 15 32 15.45 32 16C32 24.82 24.8222 32 16.005 32H15.995ZM15.995 28C9.37707 28 3.99875 22.62 3.99875 16C3.99875 11.41 6.67791 7.16 10.8166 5.17C11.3165 4.93 11.9163 5.14 12.1462 5.64C12.3861 6.14 12.1762 6.73 11.6764 6.97C8.22743 8.62 5.98813 12.17 5.98813 15.99C5.98813 21.5 10.4767 25.99 15.985 25.99C18.7341 25.99 21.3033 24.89 23.2127 22.9C23.5926 22.5 24.2224 22.49 24.6223 22.87C25.0222 23.25 25.0322 23.88 24.6523 24.28C22.363 26.67 19.284 27.98 15.985 27.98L15.995 28ZM3.22899 24.87C2.8891 24.87 2.5692 24.7 2.37926 24.4C0.829741 21.88 0 18.98 0 16.01C0 14.57 0.189941 13.14 0.569822 11.77C0.719775 11.24 1.2696 10.92 1.79944 11.07C2.32927 11.22 2.64917 11.77 2.49922 12.3C2.16932 13.5 1.99938 14.75 1.99938 16.01C1.99938 18.61 2.71915 21.15 4.07873 23.35C4.36864 23.82 4.21868 24.44 3.74883 24.73C3.58888 24.83 3.39894 24.88 3.22899 24.88V24.87ZM15.995 24C11.5864 24 7.9975 20.41 7.9975 16V15.87C7.9975 15.32 8.44736 14.88 8.99719 14.88H9.00719C9.55701 14.88 9.99688 15.34 9.99688 15.89V15.99C9.99688 19.3 12.686 21.99 15.995 21.99C19.304 21.99 21.9931 19.3 21.9931 15.99C21.9931 13.93 20.9535 12.03 19.204 10.92C18.7341 10.62 18.6042 10.01 18.8941 9.54C19.194 9.07 19.8038 8.94 20.2737 9.23C22.6029 10.71 23.9825 13.23 23.9825 15.99C23.9825 20.4 20.3936 23.99 15.985 23.99L15.995 24ZM25.9619 21.65C25.8219 21.65 25.672 21.62 25.542 21.56C25.0422 21.33 24.8222 20.73 25.0622 20.23C25.682 18.9 25.9919 17.48 25.9919 16.01C25.9919 10.5 21.5033 6.01 15.995 6.01C15.5951 6.01 15.1953 6.03 14.8054 6.08C14.2555 6.14 13.7557 5.75 13.6957 5.2C13.6357 4.65 14.0256 4.16 14.5754 4.09C15.0453 4.03 15.5251 4.01 16.005 4.01C22.6229 4.01 28.0013 9.39 28.0013 16.01C28.0013 17.78 27.6214 19.49 26.8816 21.08C26.7117 21.44 26.3518 21.66 25.9719 21.66L25.9619 21.65ZM15.995 20C13.7857 20 11.9963 18.21 11.9963 16C11.9963 13.79 13.7857 12 15.995 12C16.6148 12 17.2346 12.15 17.7944 12.43C18.2843 12.68 18.4842 13.28 18.2343 13.77C17.9844 14.26 17.3846 14.46 16.8947 14.21C16.6148 14.07 16.3149 14 15.995 14C14.8953 14 13.9956 14.9 13.9956 16C13.9956 17.1 14.8953 18 15.995 18C17.0147 18 17.8744 17.24 17.9844 16.22C18.0444 15.67 18.5542 15.28 19.084 15.34C19.6339 15.4 20.0237 15.9 19.9638 16.44C19.7438 18.47 18.0344 20 15.985 20H15.995ZM9.95689 13.45C9.78694 13.45 9.607 13.41 9.44705 13.31C8.9672 13.03 8.81725 12.42 9.09716 11.94C10.5967 9.39 13.4758 7.86 16.3949 8C16.9447 8.03 17.3746 8.5 17.3446 9.05C17.3146 9.6 16.8447 10.03 16.2949 10C14.1056 9.89 11.9463 11.04 10.8166 12.95C10.6267 13.27 10.2968 13.44 9.95689 13.44V13.45ZM30.5605 13.43C30.1106 13.43 29.7007 13.12 29.5908 12.67C29.2009 11.07 28.5411 9.57 27.6214 8.2C27.3115 7.74 27.4314 7.12 27.8913 6.81C28.3511 6.5 28.971 6.62 29.2809 7.08C30.3305 8.65 31.0903 10.37 31.5401 12.19C31.6701 12.73 31.3402 13.27 30.8104 13.4C30.7304 13.42 30.6504 13.43 30.5704 13.43H30.5605ZM2.8891 9.7C2.71915 9.7 2.5592 9.66 2.39925 9.57C1.9194 9.3 1.73946 8.69 2.00937 8.21C4.84849 3.15 10.1968 0 15.995 0C19.9938 0 23.8326 1.49 26.7816 4.19C27.1915 4.56 27.2215 5.19 26.8416 5.6C26.4717 6.01 25.8419 6.04 25.4321 5.66C22.8529 3.3 19.4939 2 15.995 2C10.9266 2 6.23805 4.75 3.76882 9.19C3.58888 9.52 3.24899 9.7 2.89909 9.7H2.8891Z" fill="#FA5C6E"/>
</svg>
